<svg version="1.1" xmlns="http://www.w3.org/2000/svg" xmlns:xlink="http://www.w3.org/1999/xlink" width="1142" height="689"><desc>title%20Event%20Mode%20Data%20Flow%0A%0Aparticipant%20Digitizers%0A%0Aparticipantgroup%20%23lightblue%20**Compute%201**%0Adatabase%20Kafka%20broker%0Aend%0A%0Aparticipantgroup%20%23lightgreen%20**Compute%202**%0Aparticipant%20Event%20formation%0Aparticipant%20NeXus%20writer%0Aend%0A%0Aparticipantgroup%20%23pink%20External%0Adatabase%20ISIS%20Archive%0Aparticipant%20Live%20visualisation%0Aend%0A%0A%5B-%3EDigitizers%3Atrigger%0Aactivate%20Digitizers%0ADigitizers-%23red%3EKafka%20broker%3Adev1%0Adeactivate%20Digitizers%0A%0AKafka%20broker-%23red%3EEvent%20formation%3Adev1%0Aactivate%20Event%20formation%0AEvent%20formation-%23orange%3EKafka%20broker%3Aev42%0Adeactivate%20Event%20formation%0A%0AKafka%20broker-%23orange%3ENeXus%20writer%3Aev42%0Aactivate%20NeXus%20writer%0ANeXus%20writer-%23blue%3EISIS%20Archive%3A.nxs%0Adeactivate%20NeXus%20writer%0AKafka%20broker-%23orange%3ELive%20visualisation%3Aev42</desc><defs/><g><g/><g/><g/><g/><g/><g/><g/><g/><g/><g/><g><rect fill="white" stroke="none" x="0" y="0" width="1142" height="689"/></g><g><text fill="black" stroke="none" font-family="sans-serif" font-size="19.5pt" font-style="normal" font-weight="normal" text-decoration="normal" x="425.26399642320655" y="30.1572984" text-anchor="start" dominant-baseline="alphabetic" xml:space="preserve">Event Mode Data Flow</text></g><g><g><path fill="lightblue" stroke="black" paint-order="fill stroke markers" d=" M 228.83081546666668 62.023510376 L 358.1690108396159 62.023510376 L 358.1690108396159 679.3434086240001 L 228.83081546666668 679.3434086240001 L 228.83081546666668 62.023510376" stroke-miterlimit="10" stroke-width="1.6754054666666667" stroke-dasharray=""/></g><g><text fill="black" stroke="none" font-family="sans-serif" font-size="13pt" font-style="normal" font-weight="bold" text-decoration="normal" x="240.71658032843425" y="90.17032221599999" text-anchor="start" dominant-baseline="alphabetic" xml:space="preserve">Compute 1</text></g><g><path fill="lightgreen" stroke="black" paint-order="fill stroke markers" d=" M 390.1128880864745 102.63533888799999 L 768.6110611857871 102.63533888799999 L 768.6110611857871 679.3434086240001 L 390.1128880864745 679.3434086240001 L 390.1128880864745 102.63533888799999" stroke-miterlimit="10" stroke-width="1.6754054666666667" stroke-dasharray=""/></g><g><text fill="black" stroke="none" font-family="sans-serif" font-size="13pt" font-style="normal" font-weight="bold" text-decoration="normal" x="526.5786418114237" y="130.782150728" text-anchor="start" dominant-baseline="alphabetic" xml:space="preserve">Compute 2</text></g><g><path fill="pink" stroke="black" paint-order="fill stroke markers" d=" M 796.6716033191203 62.023510376 L 1132.0755661499288 62.023510376 L 1132.0755661499288 679.3434086240001 L 796.6716033191203 679.3434086240001 L 796.6716033191203 62.023510376" stroke-miterlimit="10" stroke-width="1.6754054666666667" stroke-dasharray=""/></g><g><text fill="black" stroke="none" font-family="sans-serif" font-size="13pt" font-style="normal" font-weight="normal" text-decoration="normal" x="928.4235839715851" y="90.17032221599999" text-anchor="start" dominant-baseline="alphabetic" xml:space="preserve">External</text></g></g><g><path fill="none" stroke="black" paint-order="fill stroke markers" d=" M 132.25117335804038 204.86858046400002 L 132.25117335804038 679.3434086240001" stroke-miterlimit="10" stroke-width="1.6754054666666667" stroke-dasharray="15.46528123076923,6.701621866666667"/><path fill="none" stroke="black" paint-order="fill stroke markers" d=" M 293.4999131531413 204.86858046400002 L 293.4999131531413 679.3434086240001" stroke-miterlimit="10" stroke-width="1.6754054666666667" stroke-dasharray="15.46528123076923,6.701621866666667"/><path fill="none" stroke="black" paint-order="fill stroke markers" d=" M 491.6457641860097 204.86858046400002 L 491.6457641860097 679.3434086240001" stroke-miterlimit="10" stroke-width="1.6754054666666667" stroke-dasharray="15.46528123076923,6.701621866666667"/><path fill="none" stroke="black" paint-order="fill stroke markers" d=" M 680.894850735666 204.86858046400002 L 680.894850735666 679.3434086240001" stroke-miterlimit="10" stroke-width="1.6754054666666667" stroke-dasharray="15.46528123076923,6.701621866666667"/><path fill="none" stroke="black" paint-order="fill stroke markers" d=" M 857.9907025314739 204.86858046400002 L 857.9907025314739 679.3434086240001" stroke-miterlimit="10" stroke-width="1.6754054666666667" stroke-dasharray="15.46528123076923,6.701621866666667"/><path fill="none" stroke="black" paint-order="fill stroke markers" d=" M 1025.692683946878 204.86858046400002 L 1025.692683946878 679.3434086240001" stroke-miterlimit="10" stroke-width="1.6754054666666667" stroke-dasharray="15.46528123076923,6.701621866666667"/></g><g><path fill="none" stroke="none"/><g><path fill="white" stroke="black" paint-order="fill stroke markers" d=" M 69.7040605943939 150.585443344 L 194.79828612168686 150.585443344 L 194.79828612168686 204.868580464 L 69.7040605943939 204.868580464 L 69.7040605943939 150.585443344 Z" stroke-miterlimit="10" stroke-width="3.216778496" stroke-dasharray=""/></g><g><g/><text fill="black" stroke="none" font-family="sans-serif" font-size="13pt" font-style="normal" font-weight="normal" text-decoration="normal" x="91.51783977039389" y="184.76371486399998" text-anchor="start" dominant-baseline="alphabetic" xml:space="preserve">Digitizers</text></g><g><path fill="white" stroke="black" paint-order="fill stroke markers" d=" M 264.14680937714127 165.463043888 L 264.14680937714127 123.24282612799999 L 322.8530169291413 123.24282612799999 L 322.8530169291413 165.463043888" stroke-miterlimit="10" stroke-width="3.417827152" stroke-dasharray=""/><path fill="white" stroke="black" paint-order="fill stroke markers" d=" M 322.8530169291413 121.7751709392 L 322.8515492861829 121.90786084063583 L 322.84714650407085 122.0405374731921 L 322.8398090230796 122.17318756931613 L 322.8295375769512 122.3057978641088 L 322.81633319282173 122.43835509665118 L 322.80019719111857 122.57084601133046 L 322.7811311854284 122.70325735916559 L 322.75913708233594 122.83557589913212 L 322.73421708123317 122.96778839948634 L 322.70637367409944 123.09988163908837 L 322.6756096452522 123.23184240872432 L 322.64192807106883 123.36365751242722 L 322.60533231967855 123.49531376879652 L 322.565826050626 123.62679801231631 L 322.5234132145053 123.75809709467183 L 322.47809805256463 123.88919788606421 L 322.42988509628236 124.0200872765236 L 322.37877916691406 124.15075217722 L 322.32478537501004 124.28117952177226 L 322.2679091199044 124.41135626755458 L 322.2081560891754 124.54126939700089 L 322.14553225807623 124.67090591890648 L 322.08004388893784 124.80025286972722 L 322.01169753054256 124.9292973148758 L 321.94050001746933 125.05802635001524 L 321.86645846941 125.1864271023493 L 321.7895802904578 125.31448673190974 L 321.7098731683665 125.44219243284034 L 321.6273450737819 125.56953143467742 L 321.5420042594447 125.6964910036269 L 321.4538592593652 125.8230584438377 L 321.3629188879699 125.94922109867126 L 321.2691922392203 126.07496635196723 L 321.172688685703 126.20028162930508 L 321.07341787769303 126.3251543992615 L 320.9713897421885 126.44957217466356 L 320.86661448191785 126.57352251383739 L 320.7591025743198 126.69699302185236 L 320.6488647704956 126.81997135176059 L 320.53591209413366 126.94244520583153 L 320.4202558404076 127.06440233678187 L 320.3019075748463 127.18583054900013 L 320.18087913217784 127.30671769976627 L 320.05718261514545 127.42705170046595 L 319.9308303932979 127.5468205177994 L 319.801835101752 127.66601217498469 L 319.67020963992945 127.7846147529554 L 319.5359671702667 127.90261639155261 L 319.3991211168989 128.02000529071077 L 319.2596851643173 128.13676971163778 L 319.117673256001 128.25289797798885 L 318.97309959302254 128.36837847703416 L 318.8259786326276 128.48319966081996 L 318.67632508678975 128.59735004732366 L 318.52415392073874 128.71081822160164 L 318.36948035146446 128.82359283693108 L 318.21231984619493 128.9356626159444 L 318.0526881208497 129.04701635175712 L 317.8906011384683 129.15764290908842 L 317.72607510761384 129.26753122537477 L 317.55912648075235 129.37667031187613 L 317.38977195260736 129.4850492547748 L 317.21802845849055 129.59265721626676 L 317.0439131726083 129.69948343564556 L 316.867443506344 129.80551723037829 L 316.68863710651726 129.91074799717384 L 316.50751185361906 130.01516521304322 L 316.32408586002373 130.11875843635187 L 316.1383774681778 130.22151730786373 L 315.95040524876566 130.32343155177736 L 315.7601879988527 130.42449097675325 L 315.5677447400053 130.52468547693312 L 315.373094716389 130.62400503295046 L 315.17625739284404 130.72243971293244 L 314.9772524529386 130.81997967349307 L 314.77609979700094 130.91661516071758 L 314.57281954012893 131.0123365111378 L 314.36743201017896 131.1071341526984 L 314.1599577457328 131.2009986057143 L 313.9504174940441 131.29392048381834 L 313.7388322089633 131.38589049490022 L 313.5252230488426 131.47689944203543 L 313.30961137442006 131.56693822440508 L 313.0920187466834 131.65599783820602 L 312.8724669247141 131.74406937755103 L 312.6509778635114 131.8311440353596 L 312.4275737117968 131.9172131042385 L 312.20227680979934 132.00226797735257 L 311.9751096870215 132.0863001492854 L 311.74609505998615 132.16930121688978 L 311.51525582996527 132.25126288012814 L 311.2826150806894 132.33217694290244 L 311.0481960760397 132.41203531387387 L 310.8120222577212 132.49083000727185 L 310.57411724291893 132.5685531436927 L 310.33450482193615 132.64519695088757 L 310.09320895581527 132.72075376453958 L 309.85025377394186 132.79521602903034 L 309.60566357163157 132.86857629819548 L 309.3594628077009 132.9408272360692 L 309.11167610202097 133.01196161761789 L 308.8623282330559 133.0819723294627 L 308.61144413538483 133.1508523705908 L 308.3590488972084 133.21859485305546 L 308.1051677578402 133.2851930026649 L 307.8498261051825 133.35064015965963 L 307.5930494731878 133.4149297793785 L 307.3348635393054 133.47805543291312 L 307.0752941219134 133.54001080775078 L 306.8143671777373 133.60078970840553 L 306.55210879925414 133.66038605703804 L 306.28854521208314 133.71879389406308 L 306.0237027723634 133.77600737874562 L 305.75760796411817 133.83202078978485 L 305.4902873966066 133.8868285258864 L 305.2217678016626 133.94042510632224 L 304.95207603102193 133.9928051714791 L 304.6812390536369 134.043963483394 L 304.4092839529796 134.0938949262785 L 304.1362379243334 134.14259450702983 L 303.8621282720736 134.19005735573054 L 303.5869824069372 134.2362787261353 L 303.3108278432812 134.28125399614558 L 303.03369219633186 134.32497866827188 L 302.7556031794231 134.3674483700834 L 302.47658860122465 134.40865885464538 L 302.196676362962 134.44860600094367 L 301.9158944556256 134.48728581429694 L 301.6342709571723 134.5246944267561 L 301.3518340297172 134.56082809749108 L 301.06861191671766 134.5956832131649 L 300.78463294014904 134.62925628829504 L 300.4999254976722 134.661543965602 L 300.21451805979433 134.69254301634493 L 299.9284391670213 134.72225034064456 L 299.64171742700387 134.75066296779323 L 299.3543815116773 134.77777805655194 L 299.0664601543935 134.8035928954344 L 298.77798214704836 134.8281049029782 L 298.48897633720225 134.85131162800303 L 298.19947162519526 134.87321074985573 L 297.90949696125733 134.89380007864236 L 297.61908134261324 134.9130775554472 L 297.32825381058285 134.93104125253862 L 297.037043447677 134.9476893735619 L 296.74547937468924 134.96302025371884 L 296.45359074778395 134.97703235993413 L 296.16140675558063 134.98972429100888 L 295.868956616235 135.00109477776053 L 295.57626957451714 135.0111426831499 L 295.28337489888753 135.0198670023948 L 294.99030187856954 135.0272668630706 L 294.697079820621 135.0333415251974 L 294.40373804700334 135.038090381314 L 294.1103058916495 135.0415129565388 L 293.8168126975304 135.04360890861713 L 293.523287813721 135.0443780279555 L 293.229760592465 135.04382023764265 L 292.93626038623995 135.0419355934571 L 292.64281654482187 135.03872428386177 L 292.34945841235043 135.03418662998484 L 292.0562153243943 135.028323085588 L 291.76311660501796 135.0211342370208 L 291.47019156384914 135.01262080316206 L 291.17746949314784 135.0027836353481 L 290.8849796648771 134.9916237172875 L 290.59275132777617 134.97914216496275 L 290.3008137044351 134.96534022651872 L 290.009195988373 134.9502192821377 L 289.71792734111847 134.9337808439016 L 289.4270368892935 134.91602655564046 L 289.1365537217008 134.89695819276838 L 288.8465068864152 134.87657766210572 L 288.55692538787844 134.85488700168855 L 288.267838183999 134.8318883805649 L 287.9792741832565 134.80758409857765 L 287.6912622418104 134.78197658613476 L 287.40383116061497 134.75506840396616 L 287.1170096825387 134.72686224286764 L 286.83082648949045 134.69736092343177 L 286.545310199551 134.66656739576595 L 286.26048936411144 134.63448473919726 L 285.97639246501797 134.60111616196463 L 285.6930479117237 134.56646500089798 L 285.41048403844786 134.53053472108454 L 285.12872910134234 134.49332891552234 L 284.847811275666 134.45485130476092 L 284.5677586529674 134.41510573652934 L 284.28859923827537 134.37409618535125 L 284.01036094729875 134.3318267521476 L 283.73307160363476 134.28830166382653 L 283.4567589359867 134.24352527286058 L 283.1814505753911 134.1975020568515 L 282.90717405245465 134.15023661808257 L 282.633956794601 134.10173368305828 L 282.36182612332817 134.0519981020317 L 282.0908092514767 134.00103484851948 L 281.8209332805078 133.9488490188045 L 281.55222519779375 133.8954458314263 L 281.28471187391887 133.84083062665906 L 281.0184200599926 133.78500886597774 L 280.7533763849744 133.72798613151193 L 280.48960735301097 133.6697681254875 L 280.2271393407857 133.61036066965661 L 279.965998594881 133.5497697047153 L 279.7062112291539 133.48800128970956 L 279.44780322212455 133.4250616014294 L 279.1908004143782 133.36095693379127 L 278.9352285059815 133.29569369720846 L 278.6811130539123 133.22927841795024 L 278.4284794695041 133.1617177374892 L 278.1773530159048 133.0930184118371 L 277.9277588055504 133.02318731086925 L 277.6797217976541 132.95223141763753 L 277.4332667957098 132.88015782767218 L 277.1884184450125 132.80697374827207 L 276.9452012301931 132.73268649778424 L 276.7036394727705 132.65730350487175 L 276.463757328719 132.58083230777112 L 276.22557878605323 132.5032805535383 L 275.9891276624289 132.42465599728413 L 275.7544276027615 132.3449665013987 L 275.52150207686117 132.26422003476515 L 275.29037437708655 132.1824246719629 L 275.06106761601495 132.09958859246007 L 274.8336047241314 132.01572007979556 L 274.60800844753555 131.93082752075074 L 274.3843013456671 131.8449194045108 L 274.1625057890497 131.75800432181575 L 273.9426439570543 131.67009096410146 L 273.72473783568086 131.5811881226304 L 273.50880921535986 131.49130468761265 L 273.2948796887735 131.4004496473168 L 273.08297064869606 131.3086320871712 L 272.873103285855 131.2158611888553 L 272.66529858681173 131.12214622938168 L 272.459577331863 131.02749658016816 L 272.2559600929628 130.93192170610078 L 272.0544672316654 130.8354311645873 L 271.855118897089 130.7380346046015 L 271.65793502390096 130.63974176571816 L 271.4629353303242 130.5405624771393 L 271.2701393161657 130.4405066567111 L 271.0795662608661 130.33958430993226 L 270.8912352215722 130.23780552895332 L 270.70516503123093 130.13518049156758 L 270.5213742967063 130.03171946019324 L 270.3398813969186 129.92743278084725 L 270.1607044810066 129.82233088211063 L 269.98386146651245 129.71642427408565 L 269.8093700375904 129.60972354734488 L 269.63724764323774 129.50223937187207 L 269.4675114955507 129.39398249599517 L 269.3001785680024 129.28496374531161 L 269.1352655937463 129.17519402160556 L 268.9727890639423 129.06468430175795 L 268.812765226108 128.95344563664867 L 268.6552100824939 128.84148915005147 L 268.500139388483 128.7288260375218 L 268.3475686510155 128.615467565277 L 268.19751312703795 128.5014250690698 L 268.04998782197777 128.3867099530548 L 267.9050074882425 128.27133368864804 L 267.7625866237447 128.15530781337978 L 267.6227394704522 128.03864392974086 L 267.48548001296365 127.92135370402241 L 267.3508219771105 127.80344886514929 L 267.21877882858416 127.68494120350714 L 267.0893637715894 127.56584256976333 L 266.962589747524 127.44616487368202 L 266.8384694336849 127.32592008293307 L 266.7170152419999 127.20512022189536 L 266.59823931778703 127.08377737045431 L 266.4821535385397 126.96190366279397 L 266.3687695127391 126.83951128618354 L 266.2580985786933 126.71661247975868 L 266.15015180340356 126.5932195332976 L 266.0449399814574 126.46934478599215 L 265.9424736339493 126.34500062521383 L 265.8427630074287 126.22019948527507 L 265.74581807287507 126.09495384618589 L 265.65164852470116 125.9692762324058 L 265.5602637797833 125.84317921159149 L 265.4716729765198 125.71667539333993 L 265.3858849739172 125.58977742792753 L 265.30290835070423 125.46249800504508 L 265.222751404474 125.33484985252882 L 265.14542215085453 125.2068457350876 L 265.07092832270655 125.07849845302653 L 264.9992773693509 124.94982084096682 L 264.9304764558232 124.82082576656248 L 264.8645324621574 124.69152612921344 L 264.801451982698 124.56193485877569 L 264.74124132544034 124.43206491426827 L 264.6839065113999 124.3019292825774 L 264.6294532740105 124.17154097715785 L 264.5778870585503 124.04091303673145 L 264.5292130215979 123.91005852398341 L 264.4834360305166 123.77899052425596 L 264.4405606629672 123.64772214423986 L 264.4005912064507 123.5162665106637 L 264.3635316578796 123.38463676898131 L 264.3293857231777 123.25284608205715 L 264.2981568169102 123.12090762885009 L 264.26984806194156 122.98883460309553 L 264.24446228912376 122.85664021198595 L 264.2220020370129 122.7243376748503 L 264.2024695516155 122.59194022183208 L 264.18586678616373 122.45946109256623 L 264.1721954009204 122.32691353485527 L 264.16145676301255 122.19431080334454 L 264.15365194629516 122.06166615819667 L 264.1487817312433 121.92899286376564 L 264.14684660487444 121.79630418727035 L 264.14784676069957 121.66361339746787 L 264.151782098704 121.53093376332659 L 264.1586522253572 121.39827855269937 L 264.16845645365214 121.26566103099671 L 264.18119380317427 121.1330944598603 L 264.1968630001992 121.00059209583675 L 264.2154624778203 120.86816718905206 L 264.2369903761053 120.73583298188655 L 264.26144454228233 120.60360270765065 L 264.28882253095514 120.47148958926162 L 264.3191216043477 120.33950683792118 L 264.35233873257783 120.20766765179448 L 264.38847059396045 120.07598521469028 L 264.42751357533956 119.94447269474253 L 264.46946377244956 119.81314324309366 L 264.51431699030564 119.6820099925794 L 264.5620687436234 119.55108605641549 L 264.6127142572674 119.42038452688645 L 264.66624846672835 119.28991847403634 L 264.7226660186299 119.1597009443617 L 264.78196127126404 119.029744959507 L 264.8441282951548 118.90006351496243 L 264.9091608736516 118.77066957876436 L 264.9770525035508 118.64157609019858 L 265.047796395746 118.5127959585064 L 265.1213854759069 118.38434206159364 L 265.19781238518686 118.25622724474296 L 265.2770694809586 118.1284643193293 L 265.3591488375786 118.0010660615387 L 265.4440422471796 117.87404521109077 L 265.53174122049137 117.74741446996475 L 265.62223698768963 117.6211865011292 L 265.71552049927317 117.4953739272758 L 265.8115824269685 117.36998932955713 L 265.91041316466294 117.24504524632843 L 266.01200282936503 117.12055417189393 L 266.116341262193 116.99652855525733 L 266.2234180293905 116.87298079887694 L 266.33322242337 116.74992325742542 L 266.4457434637837 116.6273682365544 L 266.5609698986212 116.50532799166382 L 266.67889020533516 116.38381472667648 L 266.7994925919931 116.2628405928176 L 266.92276499845684 116.14241768739977 L 267.04869509758856 116.02255805261316 L 267.17727029648324 115.9032736743214 L 267.3084777377281 115.7845764808629 L 267.44230430068836 115.66647834185807 L 267.5787366028193 115.54899106702243 L 267.7177610010043 115.43212640498552 L 267.85936359291946 115.3158960421162 L 268.00353021842363 115.20031160135386 L 268.15024646097436 115.08538464104629 L 268.2994976490697 114.97112665379372 L 268.4512688577151 114.85754906529968 L 268.60554490991626 114.74466323322837 L 268.7623103781965 114.63248044606891 L 268.92154958613963 114.52101192200654 L 269.08324660995754 114.41026880780078 L 269.24738528008265 114.30026217767076 L 269.4139491827847 114.19100303218782 L 269.5829216618122 114.08250229717547 L 269.75428582005804 113.97477082261679 L 269.92802452124926 113.86781938156945 L 270.1041203916605 113.76165866908843 L 270.2825558218515 113.65629930115652 L 270.46331296842783 113.55175181362272 L 270.64637375582555 113.44802666114863 L 270.83171987811846 113.3451342161631 L 271.01933280084876 113.24308476782487 L 271.20919376288055 113.14188852099372 L 271.4012837782758 113.04155559521001 L 271.5955836381931 112.94209602368271 L 271.7920739128083 112.8435197522861 L 271.9907349532578 112.74583663856515 L 272.19154689360295 112.64905645074985 L 272.3944896528172 112.55318886677833 L 272.5995429367937 112.45824347332909 L 272.80668624037486 112.36422976486236 L 273.0158988494031 112.27115714267063 L 273.22715984279165 112.17903491393857 L 273.44044809461735 112.08787229081229 L 273.6557422762328 111.99767838947811 L 273.8730208583991 111.90846222925103 L 274.09226211343923 111.82023273167272 L 274.31344411741037 111.7329987196194 L 274.5365447522964 111.64676891641959 L 274.76154170821974 111.56155194498176 L 274.9884124856723 111.47735632693202 L 275.21713439776545 111.39419048176202 L 275.4476845724985 111.31206272598699 L 275.68003995504614 111.23098127231405 L 275.9141773100638 111.150954228821 L 276.15007322401095 111.0719895981455 L 276.38770410749294 110.99409527668483 L 276.62704619761934 110.9172790538062 L 276.8680755603806 110.8415486110679 L 277.1107680930413 110.76691152145109 L 277.3550995265505 110.69337524860254 L 277.60104542796836 110.62094714608824 L 277.8485812029097 110.54963445665811 L 278.09768209800336 110.47944431152165 L 278.3483232033674 110.41038372963487 L 278.60047945510007 110.34245961699843 L 278.85412563778647 110.27567876596699 L 279.10923638701956 110.21004785456998 L 279.3657861919371 110.14557344584387 L 279.6237493977724 110.0822619871758 L 279.8831002084197 110.02011980965887 L 280.1438126890143 109.95915312745905 L 280.40586076852514 109.89936803719375 L 280.66921824236283 109.8407705173222 L 280.9338587749994 109.78336642754752 L 281.1997559026021 109.72716150823088 L 281.4668830356797 109.67216137981735 L 281.73521346174164 109.61837154227396 L 282.00472034796877 109.56579737453963 L 282.27537674389714 109.51444413398731 L 282.5471555841127 109.46431695589828 L 282.8200296909579 109.41542085294857 L 283.0939717772494 109.36776071470773 L 283.36895444900694 109.32134130714986 L 283.6449502081924 109.27616727217705 L 283.92193145546 109.23224312715513 L 284.1998704929157 109.18957326446201 L 284.4787395268874 109.14816195104841 L 284.75851067070414 109.10801332801114 L 285.03915594748463 109.06913141017907 L 285.32064729293506 109.03152008571156 L 285.60295655815554 108.99518311570974 L 285.8860555124547 108.9601241338403 L 286.16991584617307 108.92634664597223 L 286.4545091735138 108.89385402982616 L 286.7398070353814 108.86264953463665 L 287.0257809022273 108.83273628082718 L 287.3124021769032 108.80411725969822 L 287.59964219752055 108.77679533312805 L 287.8874722403166 108.75077323328654 L 288.1758635225268 108.72605356236198 L 288.46478720526346 108.70263879230089 L 288.754214396399 108.68053126456074 L 289.04411615345543 108.6597331898759 L 289.3344634864987 108.64024664803648 L 289.6252273610374 108.62207358768046 L 289.91637870092643 108.6052158260987 L 290.2078883912744 108.58967504905333 L 290.49972728135526 108.57545281060911 L 290.7918661875231 108.56255053297801 L 291.08427589613086 108.55096950637704 L 291.37692716645125 108.54071088889924 L 291.6697907336012 108.53177570639778 L 291.962837311468 108.52416485238348 L 292.256037595638 108.51787908793538 L 292.5493622663273 108.51291904162471 L 292.8427819913131 108.50928520945196 L 293.1362674288675 108.50697795479732 L 293.42978923069126 108.50599750838433 L 293.72331804484884 108.5063439682568 L 294.0168245187034 108.50801729976905 L 294.3102793018522 108.51101733558933 L 294.6036530490614 108.51534377571653 L 294.8969164232008 108.52099618751028 L 295.19004009817735 108.52797400573408 L 295.4829947618679 108.53627653261192 L 295.77575111905 108.54590293789806 L 296.0682798943322 108.55685225895996 L 296.36055183508046 108.56912340087467 L 296.6525377143444 108.58271513653821 L 296.94420833377944 108.59762610678834 L 297.23553452656665 108.61385482054045 L 297.5264871603295 108.6313996549367 L 297.8170371400471 108.65025885550828 L 298.1071554109636 108.67043053635084 L 298.3968129614937 108.6919126803131 L 298.6859808261237 108.71470313919856 L 298.97463008830806 108.73879963398034 L 299.2627318833612 108.76419975502904 L 299.55025740134363 108.79090096235372 L 299.8371778899432 108.81890058585589 L 300.12346465735004 108.84819582559652 L 300.40908907512613 108.87878375207609 L 300.69402258106766 108.91066130652742 L 300.9782366820615 108.94382530122162 L 301.2617029569343 108.97827241978686 L 301.54439305929486 109.01399921754 L 301.8262787203686 109.05100212183103 L 302.1073317518241 109.08927743240037 L 302.38752404859264 109.12882132174883 L 302.666827591678 109.16962983552047 L 302.9452144509585 109.21169889289787 L 303.22265678798027 109.25502428701039 L 303.49912685874085 109.2996016853547 L 303.7745970164635 109.34542663022812 L 304.04903971436204 109.39249453917435 L 304.3224275083953 109.44080070544173 L 304.5947330600119 109.49034029845387 L 304.86592913888336 109.54110836429277 L 305.13598862562793 109.59309982619413 L 305.40488451452194 109.64630948505511 L 305.6725899162006 109.70073201995415 L 305.93907806034684 109.75636198868311 L 306.20432229836825 109.81319382829149 L 306.4682961060621 109.87122185564267 L 306.7309730862677 109.93044026798228 L 306.99232697150575 109.99084314351845 L 307.2523316266056 110.05242444201393 L 307.5109610513184 110.11517800539022 L 307.7681893829173 110.17909755834326 L 308.0239908987834 110.24417670897101 L 308.2783400189782 110.31040894941268 L 308.5312113088018 110.37778765649936 L 308.78257948133586 110.44630609241653 L 309.03241939997264 110.5159574053777 L 309.28070608092844 110.5867346303096 L 309.52741469574204 110.65863068954874 L 309.7725205737576 110.73163839354908 L 310.0159992045916 110.80575044160106 L 310.25782624058377 110.88095942256166 L 310.4979774992321 110.95725781559544 L 310.73642896561086 111.03463799092668 L 310.973156794772 111.11309221060235 L 311.20813731413006 111.19261262926582 L 311.44134702582875 111.27319129494153 L 311.67276260909136 111.35482014983003 L 311.90236092255236 111.4374910311139 L 312.1301190065717 111.52119567177384 L 312.3560140855309 111.60592570141559 L 312.58002357011014 111.69167264710677 L 312.80212505954773 111.77842793422427 L 313.0222963438799 111.86618288731168 L 313.2405154061615 111.95492873094682 L 313.45676042466823 112.04465659061927 L 313.6710097750785 112.13535749361785 L 313.8832420326358 112.22702236992782 L 314.09343597429114 112.31964205313798 L 314.3015705808256 112.41320728135715 L 314.50762503895197 112.50770869814049 L 314.7115787433961 112.60313685342508 L 314.91341129895756 112.69948220447492 L 315.11310252254896 112.79673511683518 L 315.3106324452143 112.89488586529566 L 315.505981314126 112.99392463486333 L 315.69912959455996 113.09384152174376 L 315.89005797184905 113.19462653433149 L 316.07874735331467 113.2962695942093 L 316.2651788701759 113.39876053715588 L 316.4493338794364 113.50208911416235 L 316.6311939657487 113.60624499245709 L 316.8107409432558 113.7112177565391 L 316.9879568574095 113.81699690921944 L 317.162823986766 113.92357187267099 L 317.33532484475825 114.03093198948622 L 317.5054421814441 114.1390665237429 L 317.6731589852316 114.24796466207772 L 317.8384584845803 114.35761551476762 L 318.0013241496778 114.46800811681868 L 318.1617396940935 114.5791314290627 L 318.3196890764066 114.69097433926105 L 318.4751565018104 114.80352566321591 L 318.6281264236919 114.91677414588868 L 318.7785835451865 115.03070846252548 L 318.9265128207074 115.14531721978959 L 319.0718994574503 115.26058895690076 L 319.2147289168727 115.37651214678138 L 319.35498691614765 115.49307519720902 L 319.49265942959215 115.61026645197582 L 319.6277326900695 115.72807419205392 L 319.7601931903663 115.84648663676752 L 319.8900276845429 115.96549194497081 L 320.017223189258 116.08507821623213 L 320.1417669850672 116.20523349202402 L 320.26364661769463 116.32594575691903 L 320.3828498992787 116.44720293979127 L 320.4993649095905 116.56899291502347 L 320.61317999722615 116.69130350371964 L 320.7242837807717 116.81412247492281 L 320.83266514994136 116.93743754683823 L 320.93831326668857 117.06123638806143 L 321.04121756628973 117.18550661881149 L 321.1413677584005 117.31023581216888 L 321.2387538280853 117.4354114953182 L 321.3333660368182 117.56102115079547 L 321.4251949234571 117.68705221773979 L 321.5142313051901 117.8134920931495 L 321.60046627845304 117.94032813314243 L 321.68389121982045 118.06754765422028 L 321.7644977868678 118.19513793453694 L 321.84227791900554 118.32308621517072 L 321.9172238382852 118.45137970140019 L 321.9893280501774 118.5800055639836 L 322.058583344321 118.70895094044191 L 322.12498279524425 118.83820293634493 L 322.18851976305746 118.96774862660077 L 322.2491878941168 119.09757505674834 L 322.30698112165965 119.22766924425285 L 322.36189366641145 119.35801817980393 L 322.41392003716356 119.48860882861668 L 322.46305503132214 119.61942813173502 L 322.5092937354288 119.75046300733766 L 322.5526315256516 119.88170035204624 L 322.59306406824766 120.01312704223564 L 322.6305873199965 120.14472993534636 L 322.66519752860404 120.27649587119879 L 322.6968912330784 120.40841167330912 L 322.72566526407553 120.54046415020707 L 322.75151674421625 120.67264009675502 L 322.7744430883741 120.80492629546842 L 322.7944420039338 120.93730951783768 L 322.81151149102044 121.06977652565084 L 322.8256498426996 121.20231407231753 L 322.83685564514775 121.33490890419354 L 322.8451277777941 121.46754776190618 L 322.8504654134323 121.60021738168017 L 322.8528680183031 121.73290449666413 M 322.8530169291413 163.9953886992 L 322.8515492861829 164.12807860063583 L 322.84714650407085 164.2607552331921 L 322.8398090230796 164.39340532931612 L 322.8295375769512 164.5260156241088 L 322.81633319282173 164.65857285665118 L 322.80019719111857 164.79106377133044 L 322.7811311854284 164.92347511916557 L 322.75913708233594 165.05579365913212 L 322.73421708123317 165.18800615948632 L 322.70637367409944 165.32009939908835 L 322.6756096452522 165.45206016872433 L 322.64192807106883 165.5838752724272 L 322.60533231967855 165.71553152879653 L 322.565826050626 165.84701577231633 L 322.5234132145053 165.97831485467182 L 322.47809805256463 166.1094156460642 L 322.42988509628236 166.24030503652358 L 322.37877916691406 166.37096993722 L 322.32478537501004 166.50139728177226 L 322.2679091199044 166.6315740275546 L 322.2081560891754 166.7614871570009 L 322.14553225807623 166.8911236789065 L 322.08004388893784 167.0204706297272 L 322.01169753054256 167.1495150748758 L 321.94050001746933 167.27824411001524 L 321.86645846941 167.40664486234928 L 321.7895802904578 167.53470449190974 L 321.7098731683665 167.66241019284033 L 321.6273450737819 167.7897491946774 L 321.5420042594447 167.9167087636269 L 321.4538592593652 168.04327620383768 L 321.3629188879699 168.16943885867124 L 321.2691922392203 168.29518411196722 L 321.172688685703 168.4204993893051 L 321.07341787769303 168.5453721592615 L 320.9713897421885 168.66978993466356 L 320.86661448191785 168.7937402738374 L 320.7591025743198 168.91721078185236 L 320.6488647704956 169.04018911176058 L 320.53591209413366 169.16266296583154 L 320.4202558404076 169.28462009678188 L 320.3019075748463 169.4060483090001 L 320.18087913217784 169.52693545976626 L 320.05718261514545 169.64726946046596 L 319.9308303932979 169.7670382777994 L 319.801835101752 169.8862299349847 L 319.67020963992945 170.0048325129554 L 319.5359671702667 170.1228341515526 L 319.3991211168989 170.24022305071077 L 319.2596851643173 170.35698747163778 L 319.117673256001 170.47311573798885 L 318.97309959302254 170.58859623703415 L 318.8259786326276 170.70341742081996 L 318.67632508678975 170.81756780732366 L 318.52415392073874 170.93103598160164 L 318.36948035146446 171.04381059693108 L 318.21231984619493 171.1558803759444 L 318.0526881208497 171.26723411175712 L 317.8906011384683 171.37786066908842 L 317.72607510761384 171.48774898537476 L 317.55912648075235 171.59688807187612 L 317.38977195260736 171.7052670147748 L 317.21802845849055 171.81287497626676 L 317.0439131726083 171.91970119564556 L 316.867443506344 172.02573499037828 L 316.68863710651726 172.13096575717384 L 316.50751185361906 172.23538297304322 L 316.32408586002373 172.33897619635187 L 316.1383774681778 172.44173506786373 L 315.95040524876566 172.54364931177736 L 315.7601879988527 172.64470873675324 L 315.5677447400053 172.7449032369331 L 315.373094716389 172.84422279295046 L 315.17625739284404 172.94265747293244 L 314.9772524529386 173.04019743349306 L 314.77609979700094 173.13683292071758 L 314.57281954012893 173.2325542711378 L 314.36743201017896 173.3273519126984 L 314.1599577457328 173.4212163657143 L 313.9504174940441 173.51413824381834 L 313.7388322089633 173.60610825490022 L 313.5252230488426 173.69711720203543 L 313.30961137442006 173.78715598440508 L 313.0920187466834 173.87621559820602 L 312.8724669247141 173.96428713755103 L 312.6509778635114 174.05136179535958 L 312.4275737117968 174.1374308642385 L 312.20227680979934 174.22248573735257 L 311.9751096870215 174.3065179092854 L 311.74609505998615 174.38951897688978 L 311.51525582996527 174.47148064012814 L 311.2826150806894 174.55239470290243 L 311.0481960760397 174.63225307387387 L 310.8120222577212 174.71104776727185 L 310.57411724291893 174.7887709036927 L 310.33450482193615 174.86541471088756 L 310.09320895581527 174.94097152453958 L 309.85025377394186 175.01543378903034 L 309.60566357163157 175.08879405819548 L 309.3594628077009 175.1610449960692 L 309.11167610202097 175.23217937761788 L 308.8623282330559 175.3021900894627 L 308.61144413538483 175.3710701305908 L 308.3590488972084 175.43881261305546 L 308.1051677578402 175.5054107626649 L 307.8498261051825 175.57085791965963 L 307.5930494731878 175.6351475393785 L 307.3348635393054 175.69827319291312 L 307.0752941219134 175.76022856775074 L 306.8143671777373 175.82100746840553 L 306.55210879925414 175.88060381703804 L 306.28854521208314 175.93901165406308 L 306.0237027723634 175.99622513874561 L 305.75760796411817 176.05223854978485 L 305.4902873966066 176.10704628588638 L 305.2217678016626 176.16064286632223 L 304.95207603102193 176.2130229314791 L 304.6812390536369 176.264181243394 L 304.4092839529796 176.3141126862785 L 304.1362379243334 176.36281226702982 L 303.8621282720736 176.41027511573054 L 303.5869824069372 176.4564964861353 L 303.3108278432812 176.50147175614558 L 303.03369219633186 176.54519642827188 L 302.7556031794231 176.5876661300834 L 302.47658860122465 176.62887661464538 L 302.196676362962 176.66882376094367 L 301.9158944556256 176.70750357429694 L 301.6342709571723 176.7449121867561 L 301.3518340297172 176.78104585749108 L 301.06861191671766 176.8159009731649 L 300.78463294014904 176.84947404829506 L 300.4999254976722 176.881761725602 L 300.21451805979433 176.9127607763449 L 299.9284391670213 176.94246810064456 L 299.64171742700387 176.97088072779323 L 299.3543815116773 176.99799581655193 L 299.0664601543935 177.02381065543437 L 298.77798214704836 177.0483226629782 L 298.48897633720225 177.07152938800303 L 298.19947162519526 177.09342850985573 L 297.90949696125733 177.11401783864235 L 297.61908134261324 177.13329531544719 L 297.32825381058285 177.15125901253862 L 297.037043447677 177.1679071335619 L 296.74547937468924 177.18323801371884 L 296.45359074778395 177.19725011993413 L 296.16140675558063 177.20994205100885 L 295.868956616235 177.22131253776053 L 295.57626957451714 177.23136044314987 L 295.28337489888753 177.2400847623948 L 294.99030187856954 177.2474846230706 L 294.697079820621 177.25355928519738 L 294.40373804700334 177.258308141314 L 294.1103058916495 177.2617307165388 L 293.8168126975304 177.26382666861713 L 293.523287813721 177.2645957879555 L 293.229760592465 177.26403799764265 L 292.93626038623995 177.2621533534571 L 292.64281654482187 177.25894204386174 L 292.34945841235043 177.25440438998484 L 292.0562153243943 177.24854084558802 L 291.76311660501796 177.2413519970208 L 291.47019156384914 177.23283856316206 L 291.17746949314784 177.2230013953481 L 290.8849796648771 177.2118414772875 L 290.59275132777617 177.19935992496275 L 290.3008137044351 177.18555798651872 L 290.009195988373 177.1704370421377 L 289.71792734111847 177.15399860390158 L 289.4270368892935 177.13624431564045 L 289.1365537217008 177.11717595276838 L 288.8465068864152 177.0967954221057 L 288.55692538787844 177.07510476168855 L 288.267838183999 177.0521061405649 L 287.9792741832565 177.02780185857765 L 287.6912622418104 177.00219434613476 L 287.40383116061497 176.97528616396616 L 287.1170096825387 176.94708000286764 L 286.83082648949045 176.91757868343177 L 286.545310199551 176.88678515576595 L 286.26048936411144 176.85470249919726 L 285.97639246501797 176.82133392196462 L 285.6930479117237 176.78668276089797 L 285.41048403844786 176.75075248108453 L 285.12872910134234 176.71354667552234 L 284.847811275666 176.67506906476092 L 284.5677586529674 176.63532349652934 L 284.28859923827537 176.59431394535125 L 284.01036094729875 176.55204451214763 L 283.73307160363476 176.50851942382653 L 283.4567589359867 176.46374303286058 L 283.1814505753911 176.4177198168515 L 282.90717405245465 176.37045437808257 L 282.633956794601 176.32195144305825 L 282.36182612332817 176.2722158620317 L 282.0908092514767 176.22125260851948 L 281.8209332805078 176.1690667788045 L 281.55222519779375 176.1156635914263 L 281.28471187391887 176.06104838665905 L 281.0184200599926 176.00522662597774 L 280.7533763849744 175.94820389151192 L 280.48960735301097 175.88998588548753 L 280.2271393407857 175.8305784296566 L 279.965998594881 175.76998746471529 L 279.7062112291539 175.70821904970956 L 279.44780322212455 175.6452793614294 L 279.1908004143782 175.58117469379127 L 278.9352285059815 175.51591145720846 L 278.6811130539123 175.44949617795024 L 278.4284794695041 175.38193549748922 L 278.1773530159048 175.3132361718371 L 277.9277588055504 175.24340507086924 L 277.6797217976541 175.17244917763753 L 277.4332667957098 175.10037558767218 L 277.1884184450125 175.0271915082721 L 276.9452012301931 174.9529042577842 L 276.7036394727705 174.87752126487175 L 276.463757328719 174.80105006777111 L 276.22557878605323 174.7234983135383 L 275.9891276624289 174.64487375728413 L 275.7544276027615 174.56518426139868 L 275.52150207686117 174.48443779476514 L 275.29037437708655 174.4026424319629 L 275.06106761601495 174.31980635246006 L 274.8336047241314 174.23593783979555 L 274.60800844753555 174.15104528075074 L 274.3843013456671 174.06513716451082 L 274.1625057890497 173.97822208181574 L 273.9426439570543 173.89030872410146 L 273.72473783568086 173.8014058826304 L 273.50880921535986 173.71152244761265 L 273.2948796887735 173.6206674073168 L 273.08297064869606 173.5288498471712 L 272.873103285855 173.4360789488553 L 272.66529858681173 173.34236398938168 L 272.459577331863 173.24771434016816 L 272.2559600929628 173.15213946610078 L 272.0544672316654 173.0556489245873 L 271.855118897089 172.9582523646015 L 271.65793502390096 172.85995952571815 L 271.4629353303242 172.76078023713927 L 271.2701393161657 172.6607244167111 L 271.0795662608661 172.55980206993223 L 270.8912352215722 172.4580232889533 L 270.70516503123093 172.35539825156758 L 270.5213742967063 172.25193722019324 L 270.3398813969186 172.14765054084725 L 270.1607044810066 172.04254864211063 L 269.98386146651245 171.93664203408565 L 269.8093700375904 171.82994130734488 L 269.63724764323774 171.72245713187206 L 269.4675114955507 171.61420025599517 L 269.3001785680024 171.5051815053116 L 269.1352655937463 171.39541178160556 L 268.9727890639423 171.28490206175795 L 268.812765226108 171.17366339664864 L 268.6552100824939 171.06170691005147 L 268.500139388483 170.9490437975218 L 268.3475686510155 170.83568532527698 L 268.19751312703795 170.7216428290698 L 268.04998782197777 170.6069277130548 L 267.9050074882425 170.49155144864804 L 267.7625866237447 170.37552557337978 L 267.6227394704522 170.25886168974085 L 267.48548001296365 170.1415714640224 L 267.3508219771105 170.0236666251493 L 267.21877882858416 169.90515896350712 L 267.0893637715894 169.78606032976333 L 266.962589747524 169.66638263368202 L 266.8384694336849 169.54613784293306 L 266.7170152419999 169.42533798189535 L 266.59823931778703 169.30399513045433 L 266.4821535385397 169.18212142279398 L 266.3687695127391 169.05972904618355 L 266.2580985786933 168.93683023975868 L 266.15015180340356 168.8134372932976 L 266.0449399814574 168.68956254599215 L 265.9424736339493 168.56521838521383 L 265.8427630074287 168.44041724527506 L 265.74581807287507 168.31517160618588 L 265.65164852470116 168.1894939924058 L 265.5602637797833 168.0633969715915 L 265.4716729765198 167.93689315333992 L 265.3858849739172 167.8099951879275 L 265.30290835070423 167.6827157650451 L 265.222751404474 167.5550676125288 L 265.14542215085453 167.4270634950876 L 265.07092832270655 167.29871621302652 L 264.9992773693509 167.17003860096682 L 264.9304764558232 167.04104352656248 L 264.8645324621574 166.91174388921343 L 264.801451982698 166.78215261877568 L 264.74124132544034 166.65228267426826 L 264.6839065113999 166.52214704257742 L 264.6294532740105 166.39175873715783 L 264.5778870585503 166.26113079673144 L 264.5292130215979 166.13027628398342 L 264.4834360305166 165.99920828425596 L 264.4405606629672 165.86793990423985 L 264.4005912064507 165.7364842706637 L 264.3635316578796 165.6048545289813 L 264.3293857231777 165.47306384205714 L 264.2981568169102 165.3411253888501 L 264.26984806194156 165.2090523630955 L 264.24446228912376 165.07685797198593 L 264.2220020370129 164.94455543485032 L 264.2024695516155 164.8121579818321 L 264.18586678616373 164.6796788525662 L 264.1721954009204 164.54713129485526 L 264.16145676301255 164.41452856334453 L 264.15365194629516 164.28188391819666 L 264.1487817312433 164.14921062376564 L 264.14684660487444 164.01652194727035" stroke-miterlimit="10" stroke-width="3.417827152" stroke-dasharray=""/></g><g><g/><text fill="black" stroke="none" font-family="sans-serif" font-size="13pt" font-style="normal" font-weight="normal" text-decoration="normal" x="238.88324826666667" y="198.83712078399998" text-anchor="start" dominant-baseline="alphabetic" xml:space="preserve">Kafka broker</text></g><path fill="none" stroke="none"/><g><path fill="white" stroke="black" paint-order="fill stroke markers" d=" M 400.16532088647455 150.585443344 L 583.1262074855449 150.585443344 L 583.1262074855449 204.868580464 L 400.16532088647455 204.868580464 L 400.16532088647455 150.585443344 Z" stroke-miterlimit="10" stroke-width="3.216778496" stroke-dasharray=""/></g><g><g/><text fill="black" stroke="none" font-family="sans-serif" font-size="13pt" font-style="normal" font-weight="normal" text-decoration="normal" x="421.9791000624746" y="184.76371486399998" text-anchor="start" dominant-baseline="alphabetic" xml:space="preserve">Event formation</text></g><path fill="none" stroke="none"/><g><path fill="white" stroke="black" paint-order="fill stroke markers" d=" M 603.2310730855448 150.585443344 L 758.558628385787 150.585443344 L 758.558628385787 204.868580464 L 603.2310730855448 204.868580464 L 603.2310730855448 150.585443344 Z" stroke-miterlimit="10" stroke-width="3.216778496" stroke-dasharray=""/></g><g><g/><text fill="black" stroke="none" font-family="sans-serif" font-size="13pt" font-style="normal" font-weight="normal" text-decoration="normal" x="625.0448522615449" y="184.76371486399998" text-anchor="start" dominant-baseline="alphabetic" xml:space="preserve">NeXus writer</text></g><g><path fill="white" stroke="black" paint-order="fill stroke markers" d=" M 828.6375987554738 165.463043888 L 828.6375987554738 123.24282612799999 L 887.3438063074739 123.24282612799999 L 887.3438063074739 165.463043888" stroke-miterlimit="10" stroke-width="3.417827152" stroke-dasharray=""/><path fill="white" stroke="black" paint-order="fill stroke markers" d=" M 887.3438063074739 121.7751709392 L 887.3423386645155 121.90786084063583 L 887.3379358824034 122.0405374731921 L 887.3305984014122 122.17318756931613 L 887.3203269552838 122.3057978641088 L 887.3071225711543 122.43835509665118 L 887.2909865694511 122.57084601133046 L 887.271920563761 122.70325735916559 L 887.2499264606686 122.83557589913212 L 887.2250064595657 122.96778839948634 L 887.197163052432 123.09988163908837 L 887.1663990235847 123.23184240872432 L 887.1327174494014 123.36365751242722 L 887.0961216980111 123.49531376879652 L 887.0566154289586 123.62679801231631 L 887.0142025928379 123.75809709467183 L 886.9688874308972 123.88919788606421 L 886.920674474615 124.0200872765236 L 886.8695685452467 124.15075217722 L 886.8155747533426 124.28117952177226 L 886.758698498237 124.41135626755458 L 886.698945467508 124.54126939700089 L 886.6363216364089 124.67090591890648 L 886.5708332672705 124.80025286972722 L 886.5024869088752 124.9292973148758 L 886.4312893958019 125.05802635001524 L 886.3572478477425 125.1864271023493 L 886.2803696687904 125.31448673190974 L 886.200662546699 125.44219243284034 L 886.1181344521145 125.56953143467742 L 886.0327936377772 125.6964910036269 L 885.9446486376978 125.8230584438377 L 885.8537082663025 125.94922109867126 L 885.7599816175529 126.07496635196723 L 885.6634780640355 126.20028162930508 L 885.5642072560256 126.3251543992615 L 885.462179120521 126.44957217466356 L 885.3574038602504 126.57352251383739 L 885.2498919526524 126.69699302185236 L 885.1396541488282 126.81997135176059 L 885.0267014724662 126.94244520583153 L 884.9110452187401 127.06440233678187 L 884.792696953179 127.18583054900013 L 884.6716685105104 127.30671769976627 L 884.5479719934781 127.42705170046595 L 884.4216197716305 127.5468205177994 L 884.2926244800846 127.66601217498469 L 884.160999018262 127.7846147529554 L 884.0267565485993 127.90261639155261 L 883.8899104952314 128.02000529071077 L 883.75047454265 128.13676971163778 L 883.6084626343336 128.25289797798885 L 883.4638889713551 128.36837847703416 L 883.3167680109602 128.48319966081996 L 883.1671144651223 128.59735004732366 L 883.0149432990713 128.71081822160164 L 882.8602697297971 128.82359283693108 L 882.7031092245276 128.9356626159444 L 882.5434774991822 129.04701635175712 L 882.3813905168008 129.15764290908842 L 882.2168644859464 129.26753122537477 L 882.0499158590849 129.37667031187613 L 881.8805613309399 129.4850492547748 L 881.7088178368232 129.59265721626676 L 881.5347025509409 129.69948343564556 L 881.3582328846766 129.80551723037829 L 881.1794264848498 129.91074799717384 L 880.9983012319516 130.01516521304322 L 880.8148752383563 130.11875843635187 L 880.6291668465103 130.22151730786373 L 880.4411946270983 130.32343155177736 L 880.2509773771853 130.42449097675325 L 880.0585341183379 130.52468547693312 L 879.8638840947216 130.62400503295046 L 879.6670467711766 130.72243971293244 L 879.4680418312712 130.81997967349307 L 879.2668891753335 130.91661516071758 L 879.0636089184616 131.0123365111378 L 878.8582213885115 131.1071341526984 L 878.6507471240654 131.2009986057143 L 878.4412068723767 131.29392048381834 L 878.2296215872958 131.38589049490022 L 878.0160124271752 131.47689944203543 L 877.8004007527526 131.56693822440508 L 877.582808125016 131.65599783820602 L 877.3632563030467 131.74406937755103 L 877.1417672418439 131.8311440353596 L 876.9183630901293 131.9172131042385 L 876.6930661881319 132.00226797735257 L 876.465899065354 132.0863001492854 L 876.2368844383187 132.16930121688978 L 876.0060452082978 132.25126288012814 L 875.773404459022 132.33217694290244 L 875.5389854543722 132.41203531387387 L 875.3028116360538 132.49083000727185 L 875.0649066212516 132.5685531436927 L 874.8252942002688 132.64519695088757 L 874.5839983341479 132.72075376453958 L 874.3410431522744 132.79521602903034 L 874.0964529499641 132.86857629819548 L 873.8502521860335 132.9408272360692 L 873.6024654803535 133.01196161761789 L 873.3531176113885 133.0819723294627 L 873.1022335137174 133.1508523705908 L 872.849838275541 133.21859485305546 L 872.5959571361727 133.2851930026649 L 872.3406154835151 133.35064015965963 L 872.0838388515203 133.4149297793785 L 871.825652917638 133.47805543291312 L 871.566083500246 133.54001080775078 L 871.30515655607 133.60078970840553 L 871.0428981775867 133.66038605703804 L 870.7793345904157 133.71879389406308 L 870.514492150696 133.77600737874562 L 870.2483973424507 133.83202078978485 L 869.9810767749392 133.8868285258864 L 869.7125571799952 133.94042510632224 L 869.4428654093545 133.9928051714791 L 869.1720284319695 134.043963483394 L 868.9000733313121 134.0938949262785 L 868.627027302666 134.14259450702983 L 868.3529176504062 134.19005735573054 L 868.0777717852698 134.2362787261353 L 867.8016172216137 134.28125399614558 L 867.5244815746645 134.32497866827188 L 867.2463925577556 134.3674483700834 L 866.9673779795572 134.40865885464538 L 866.6874657412945 134.44860600094367 L 866.4066838339583 134.48728581429694 L 866.1250603355049 134.5246944267561 L 865.8426234080498 134.56082809749108 L 865.5594012950503 134.5956832131649 L 865.2754223184816 134.62925628829504 L 864.9907148760049 134.661543965602 L 864.705307438127 134.69254301634493 L 864.4192285453538 134.72225034064456 L 864.1325068053364 134.75066296779323 L 863.8451708900099 134.77777805655194 L 863.557249532726 134.8035928954344 L 863.268771525381 134.8281049029782 L 862.9797657155348 134.85131162800303 L 862.6902610035278 134.87321074985573 L 862.4002863395899 134.89380007864236 L 862.1098707209458 134.9130775554472 L 861.8190431889154 134.93104125253862 L 861.5278328260096 134.9476893735619 L 861.2362687530218 134.96302025371884 L 860.9443801261166 134.97703235993413 L 860.6521961339132 134.98972429100888 L 860.3597459945676 135.00109477776053 L 860.0670589528497 135.0111426831499 L 859.7741642772202 135.0198670023948 L 859.4810912569021 135.0272668630706 L 859.1878691989535 135.0333415251974 L 858.8945274253359 135.038090381314 L 858.601095269982 135.0415129565388 L 858.307602075863 135.04360890861713 L 858.0140771920536 135.0443780279555 L 857.7205499707976 135.04382023764265 L 857.4270497645725 135.0419355934571 L 857.1336059231545 135.03872428386177 L 856.840247790683 135.03418662998484 L 856.5470047027269 135.028323085588 L 856.2539059833506 135.0211342370208 L 855.9609809421818 135.01262080316206 L 855.6682588714804 135.0027836353481 L 855.3757690432097 134.9916237172875 L 855.0835407061087 134.97914216496275 L 854.7916030827677 134.96534022651872 L 854.4999853667056 134.9502192821377 L 854.208716719451 134.9337808439016 L 853.9178262676261 134.91602655564046 L 853.6273431000334 134.89695819276838 L 853.3372962647478 134.87657766210572 L 853.047714766211 134.85488700168855 L 852.7586275623316 134.8318883805649 L 852.4700635615891 134.80758409857765 L 852.182051620143 134.78197658613476 L 851.8946205389476 134.75506840396616 L 851.6077990608713 134.72686224286764 L 851.3216158678231 134.69736092343177 L 851.0360995778836 134.66656739576595 L 850.751278742444 134.63448473919726 L 850.4671818433505 134.60111616196463 L 850.1838372900563 134.56646500089798 L 849.9012734167804 134.53053472108454 L 849.6195184796749 134.49332891552234 L 849.3386006539986 134.45485130476092 L 849.0585480313 134.41510573652934 L 848.7793886166079 134.37409618535125 L 848.5011503256313 134.3318267521476 L 848.2238609819674 134.28830166382653 L 847.9475483143193 134.24352527286058 L 847.6722399537238 134.1975020568515 L 847.3979634307872 134.15023661808257 L 847.1247461729336 134.10173368305828 L 846.8526155016608 134.0519981020317 L 846.5815986298093 134.00103484851948 L 846.3117226588404 133.9488490188045 L 846.0430145761263 133.8954458314263 L 845.7755012522514 133.84083062665906 L 845.5092094383251 133.78500886597774 L 845.244165763307 133.72798613151193 L 844.9803967313436 133.6697681254875 L 844.7179287191183 133.61036066965661 L 844.4567879732135 133.5497697047153 L 844.1970006074865 133.48800128970956 L 843.9385926004571 133.4250616014294 L 843.6815897927107 133.36095693379127 L 843.4260178843141 133.29569369720846 L 843.1719024322449 133.22927841795024 L 842.9192688478367 133.1617177374892 L 842.6681423942374 133.0930184118371 L 842.418548183883 133.02318731086925 L 842.1705111759867 132.95223141763753 L 841.9240561740424 132.88015782767218 L 841.6792078233451 132.80697374827207 L 841.4359906085257 132.73268649778424 L 841.194428851103 132.65730350487175 L 840.9545467070516 132.58083230777112 L 840.7163681643858 132.5032805535383 L 840.4799170407615 132.42465599728413 L 840.245216981094 132.3449665013987 L 840.0122914551937 132.26422003476515 L 839.7811637554191 132.1824246719629 L 839.5518569943475 132.09958859246007 L 839.324394102464 132.01572007979556 L 839.0987978258681 131.93082752075074 L 838.8750907239996 131.8449194045108 L 838.6532951673823 131.75800432181575 L 838.4334333353869 131.67009096410146 L 838.2155272140135 131.5811881226304 L 837.9995985936924 131.49130468761265 L 837.785669067106 131.4004496473168 L 837.5737600270287 131.3086320871712 L 837.3638926641876 131.2158611888553 L 837.1560879651444 131.12214622938168 L 836.9503667101956 131.02749658016816 L 836.7467494712954 130.93192170610078 L 836.545256609998 130.8354311645873 L 836.3459082754216 130.7380346046015 L 836.1487244022335 130.63974176571816 L 835.9537247086569 130.5405624771393 L 835.7609286944983 130.4405066567111 L 835.5703556391987 130.33958430993226 L 835.3820245999048 130.23780552895332 L 835.1959544095636 130.13518049156758 L 835.0121636750389 130.03171946019324 L 834.8306707752512 129.92743278084725 L 834.6514938593391 129.82233088211063 L 834.474650844845 129.71642427408565 L 834.300159415923 129.60972354734488 L 834.1280370215703 129.50223937187207 L 833.9583008738832 129.39398249599517 L 833.7909679463351 129.28496374531161 L 833.6260549720789 129.17519402160556 L 833.4635784422749 129.06468430175795 L 833.3035546044406 128.95344563664867 L 833.1459994608265 128.84148915005147 L 832.9909287668156 128.7288260375218 L 832.838358029348 128.615467565277 L 832.6883025053705 128.5014250690698 L 832.5407772003103 128.3867099530548 L 832.3957968665751 128.27133368864804 L 832.2533760020773 128.15530781337978 L 832.1135288487848 128.03864392974086 L 831.9762693912962 127.92135370402241 L 831.8416113554431 127.80344886514929 L 831.7095682069167 127.68494120350714 L 831.580153149922 127.56584256976333 L 831.4533791258566 127.44616487368202 L 831.3292588120174 127.32592008293307 L 831.2078046203325 127.20512022189536 L 831.0890286961196 127.08377737045431 L 830.9729429168723 126.96190366279397 L 830.8595588910716 126.83951128618354 L 830.7488879570259 126.71661247975868 L 830.6409411817361 126.5932195332976 L 830.5357293597899 126.46934478599215 L 830.4332630122818 126.34500062521383 L 830.3335523857613 126.22019948527507 L 830.2366074512076 126.09495384618589 L 830.1424379030337 125.9692762324058 L 830.0510531581159 125.84317921159149 L 829.9624623548524 125.71667539333993 L 829.8766743522498 125.58977742792753 L 829.7936977290368 125.46249800504508 L 829.7135407828066 125.33484985252882 L 829.6362115291871 125.2068457350876 L 829.5617177010391 125.07849845302653 L 829.4900667476835 124.94982084096682 L 829.4212658341557 124.82082576656248 L 829.35532184049 124.69152612921344 L 829.2922413610306 124.56193485877569 L 829.2320307037729 124.43206491426827 L 829.1746958897326 124.3019292825774 L 829.120242652343 124.17154097715785 L 829.0686764368828 124.04091303673145 L 829.0200023999305 123.91005852398341 L 828.9742254088492 123.77899052425596 L 828.9313500412998 123.64772214423986 L 828.8913805847833 123.5162665106637 L 828.8543210362121 123.38463676898131 L 828.8201751015104 123.25284608205715 L 828.7889461952428 123.12090762885009 L 828.7606374402742 122.98883460309553 L 828.7352516674564 122.85664021198595 L 828.7127914153455 122.7243376748503 L 828.693258929948 122.59194022183208 L 828.6766561644963 122.45946109256623 L 828.662984779253 122.32691353485527 L 828.6522461413451 122.19431080334454 L 828.6444413246278 122.06166615819667 L 828.6395711095759 121.92899286376564 L 828.637635983207 121.79630418727035 L 828.6386361390322 121.66361339746787 L 828.6425714770365 121.53093376332659 L 828.6494416036898 121.39827855269937 L 828.6592458319847 121.26566103099671 L 828.6719831815068 121.1330944598603 L 828.6876523785318 121.00059209583675 L 828.7062518561529 120.86816718905206 L 828.7277797544378 120.73583298188655 L 828.7522339206149 120.60360270765065 L 828.7796119092877 120.47148958926162 L 828.8099109826802 120.33950683792118 L 828.8431281109104 120.20766765179448 L 828.8792599722931 120.07598521469028 L 828.9183029536722 119.94447269474253 L 828.9602531507821 119.81314324309366 L 829.0051063686382 119.6820099925794 L 829.052858121956 119.55108605641549 L 829.1035036356 119.42038452688645 L 829.1570378450609 119.28991847403634 L 829.2134553969626 119.1597009443617 L 829.2727506495967 119.029744959507 L 829.3349176734873 118.90006351496243 L 829.3999502519841 118.77066957876436 L 829.4678418818834 118.64157609019858 L 829.5385857740786 118.5127959585064 L 829.6121748542395 118.38434206159364 L 829.6886017635194 118.25622724474296 L 829.7678588592912 118.1284643193293 L 829.8499382159112 118.0010660615387 L 829.9348316255122 117.87404521109077 L 830.0225305988239 117.74741446996475 L 830.1130263660223 117.6211865011292 L 830.2063098776058 117.4953739272758 L 830.302371805301 117.36998932955713 L 830.4012025429955 117.24504524632843 L 830.5027922076977 117.12055417189393 L 830.6071306405256 116.99652855525733 L 830.714207407723 116.87298079887694 L 830.8240118017026 116.74992325742542 L 830.9365328421162 116.6273682365544 L 831.0517592769538 116.50532799166382 L 831.1696795836677 116.38381472667648 L 831.2902819703256 116.2628405928176 L 831.4135543767894 116.14241768739977 L 831.5394844759212 116.02255805261316 L 831.6680596748158 115.9032736743214 L 831.7992671160606 115.7845764808629 L 831.9330936790209 115.66647834185807 L 832.0695259811519 115.54899106702243 L 832.2085503793369 115.43212640498552 L 832.3501529712521 115.3158960421162 L 832.4943195967562 115.20031160135386 L 832.6410358393069 115.08538464104629 L 832.7902870274022 114.97112665379372 L 832.9420582360476 114.85754906529968 L 833.0963342882488 114.74466323322837 L 833.2530997565291 114.63248044606891 L 833.4123389644722 114.52101192200654 L 833.5740359882901 114.41026880780078 L 833.7381746584152 114.30026217767076 L 833.9047385611173 114.19100303218782 L 834.0737110401448 114.08250229717547 L 834.2450751983906 113.97477082261679 L 834.4188138995819 113.86781938156945 L 834.5949097699931 113.76165866908843 L 834.773345200184 113.65629930115652 L 834.9541023467604 113.55175181362272 L 835.1371631341581 113.44802666114863 L 835.322509256451 113.3451342161631 L 835.5101221791813 113.24308476782487 L 835.6999831412131 113.14188852099372 L 835.8920731566084 113.04155559521001 L 836.0863730165256 112.94209602368271 L 836.2828632911409 112.8435197522861 L 836.4815243315903 112.74583663856515 L 836.6823362719356 112.64905645074985 L 836.8852790311498 112.55318886677833 L 837.0903323151263 112.45824347332909 L 837.2974756187075 112.36422976486236 L 837.5066882277356 112.27115714267063 L 837.7179492211242 112.17903491393857 L 837.93123747295 112.08787229081229 L 838.1465316545654 111.99767838947811 L 838.3638102367318 111.90846222925103 L 838.5830514917718 111.82023273167272 L 838.8042334957429 111.7329987196194 L 839.027334130629 111.64676891641959 L 839.2523310865523 111.56155194498176 L 839.4792018640048 111.47735632693202 L 839.707923776098 111.39419048176202 L 839.938473950831 111.31206272598699 L 840.1708293333787 111.23098127231405 L 840.4049666883964 111.150954228821 L 840.6408626023435 111.0719895981455 L 840.8784934858255 110.99409527668483 L 841.1178355759519 110.9172790538062 L 841.3588649387132 110.8415486110679 L 841.6015574713739 110.76691152145109 L 841.845888904883 110.69337524860254 L 842.0918348063009 110.62094714608824 L 842.3393705812423 110.54963445665811 L 842.5884714763359 110.47944431152165 L 842.8391125817 110.41038372963487 L 843.0912688334327 110.34245961699843 L 843.344915016119 110.27567876596699 L 843.6000257653521 110.21004785456998 L 843.8565755702697 110.14557344584387 L 844.114538776105 110.0822619871758 L 844.3738895867523 110.02011980965887 L 844.6346020673468 109.95915312745905 L 844.8966501468577 109.89936803719375 L 845.1600076206954 109.8407705173222 L 845.424648153332 109.78336642754752 L 845.6905452809347 109.72716150823088 L 845.9576724140123 109.67216137981735 L 846.2260028400742 109.61837154227396 L 846.4955097263013 109.56579737453963 L 846.7661661222297 109.51444413398731 L 847.0379449624453 109.46431695589828 L 847.3108190692905 109.41542085294857 L 847.584761155582 109.36776071470773 L 847.8597438273396 109.32134130714986 L 848.135739586525 109.27616727217705 L 848.4127208337926 109.23224312715513 L 848.6906598712483 109.18957326446201 L 848.96952890522 109.14816195104841 L 849.2493000490367 109.10801332801114 L 849.5299453258173 109.06913141017907 L 849.8114366712676 109.03152008571156 L 850.0937459364881 108.99518311570974 L 850.3768448907873 108.9601241338403 L 850.6607052245056 108.92634664597223 L 850.9452985518463 108.89385402982616 L 851.2305964137139 108.86264953463665 L 851.5165702805599 108.83273628082718 L 851.8031915552358 108.80411725969822 L 852.0904315758531 108.77679533312805 L 852.3782616186492 108.75077323328654 L 852.6666529008594 108.72605356236198 L 852.9555765835961 108.70263879230089 L 853.2450037747316 108.68053126456074 L 853.534905531788 108.6597331898759 L 853.8252528648312 108.64024664803648 L 854.11601673937 108.62207358768046 L 854.407168079259 108.6052158260987 L 854.698677769607 108.58967504905333 L 854.9905166596878 108.57545281060911 L 855.2826555658557 108.56255053297801 L 855.5750652744634 108.55096950637704 L 855.8677165447839 108.54071088889924 L 856.1605801119338 108.53177570639778 L 856.4536266898006 108.52416485238348 L 856.7468269739707 108.51787908793538 L 857.0401516446599 108.51291904162471 L 857.3335713696457 108.50928520945196 L 857.6270568072 108.50697795479732 L 857.9205786090238 108.50599750838433 L 858.2141074231814 108.5063439682568 L 858.507613897036 108.50801729976905 L 858.8010686801848 108.51101733558933 L 859.094442427394 108.51534377571653 L 859.3877058015333 108.52099618751028 L 859.68082947651 108.52797400573408 L 859.9737841402005 108.53627653261192 L 860.2665404973826 108.54590293789806 L 860.5590692726647 108.55685225895996 L 860.8513412134131 108.56912340087467 L 861.143327092677 108.58271513653821 L 861.434997712112 108.59762610678834 L 861.7263239048992 108.61385482054045 L 862.017276538662 108.6313996549367 L 862.3078265183797 108.65025885550828 L 862.5979447892962 108.67043053635084 L 862.8876023398262 108.6919126803131 L 863.1767702044563 108.71470313919856 L 863.4654194666406 108.73879963398034 L 863.7535212616938 108.76419975502904 L 864.0410467796762 108.79090096235372 L 864.3279672682758 108.81890058585589 L 864.6142540356826 108.84819582559652 L 864.8998784534588 108.87878375207609 L 865.1848119594002 108.91066130652742 L 865.4690260603941 108.94382530122162 L 865.7524923352669 108.97827241978686 L 866.0351824376274 109.01399921754 L 866.3170680987012 109.05100212183103 L 866.5981211301568 109.08927743240037 L 866.8783134269253 109.12882132174883 L 867.1576169700105 109.16962983552047 L 867.436003829291 109.21169889289787 L 867.7134461663129 109.25502428701039 L 867.9899162370734 109.2996016853547 L 868.2653863947961 109.34542663022812 L 868.5398290926946 109.39249453917435 L 868.8132168867279 109.44080070544173 L 869.0855224383445 109.49034029845387 L 869.356718517216 109.54110836429277 L 869.6267780039606 109.59309982619413 L 869.8956738928546 109.64630948505511 L 870.1633792945332 109.70073201995415 L 870.4298674386794 109.75636198868311 L 870.6951116767008 109.81319382829149 L 870.9590854843947 109.87122185564267 L 871.2217624646003 109.93044026798228 L 871.4831163498383 109.99084314351845 L 871.7431210049382 110.05242444201393 L 872.001750429651 110.11517800539022 L 872.2589787612499 110.17909755834326 L 872.514780277116 110.24417670897101 L 872.7691293973108 110.31040894941268 L 873.0220006871344 110.37778765649936 L 873.2733688596685 110.44630609241653 L 873.5232087783052 110.5159574053777 L 873.771495459261 110.5867346303096 L 874.0182040740747 110.65863068954874 L 874.2633099520903 110.73163839354908 L 874.5067885829242 110.80575044160106 L 874.7486156189163 110.88095942256166 L 874.9887668775647 110.95725781559544 L 875.2272183439434 111.03463799092668 L 875.4639461731045 111.11309221060235 L 875.6989266924626 111.19261262926582 L 875.9321364041614 111.27319129494153 L 876.163551987424 111.35482014983003 L 876.3931503008849 111.4374910311139 L 876.6209083849043 111.52119567177384 L 876.8468034638635 111.60592570141559 L 877.0708129484427 111.69167264710677 L 877.2929144378803 111.77842793422427 L 877.5130857222124 111.86618288731168 L 877.7313047844941 111.95492873094682 L 877.9475498030008 112.04465659061927 L 878.1617991534112 112.13535749361785 L 878.3740314109684 112.22702236992782 L 878.5842253526238 112.31964205313798 L 878.7923599591581 112.41320728135715 L 878.9984144172846 112.50770869814049 L 879.2023681217287 112.60313685342508 L 879.4042006772902 112.69948220447492 L 879.6038919008815 112.79673511683518 L 879.8014218235469 112.89488586529566 L 879.9967706924587 112.99392463486333 L 880.1899189728925 113.09384152174376 L 880.3808473501816 113.19462653433149 L 880.5695367316472 113.2962695942093 L 880.7559682485085 113.39876053715588 L 880.940123257769 113.50208911416235 L 881.1219833440813 113.60624499245709 L 881.3015303215883 113.7112177565391 L 881.478746235742 113.81699690921944 L 881.6536133650986 113.92357187267099 L 881.8261142230908 114.03093198948622 L 881.9962315597767 114.1390665237429 L 882.1639483635643 114.24796466207772 L 882.3292478629129 114.35761551476762 L 882.4921135280105 114.46800811681868 L 882.6525290724261 114.5791314290627 L 882.8104784547392 114.69097433926105 L 882.965945880143 114.80352566321591 L 883.1189158020245 114.91677414588868 L 883.2693729235191 115.03070846252548 L 883.41730219904 115.14531721978959 L 883.5626888357829 115.26058895690076 L 883.7055182952053 115.37651214678138 L 883.8457762944802 115.49307519720902 L 883.9834488079247 115.61026645197582 L 884.1185220684021 115.72807419205392 L 884.2509825686989 115.84648663676752 L 884.3808170628755 115.96549194497081 L 884.5080125675905 116.08507821623213 L 884.6325563633998 116.20523349202402 L 884.7544359960273 116.32594575691903 L 884.8736392776113 116.44720293979127 L 884.9901542879231 116.56899291502347 L 885.1039693755588 116.69130350371964 L 885.2150731591042 116.81412247492281 L 885.3234545282739 116.93743754683823 L 885.4291026450212 117.06123638806143 L 885.5320069446223 117.18550661881149 L 885.6321571367331 117.31023581216888 L 885.7295432064178 117.4354114953182 L 885.8241554151507 117.56102115079547 L 885.9159843017898 117.68705221773979 L 886.0050206835226 117.8134920931495 L 886.0912556567856 117.94032813314243 L 886.174680598153 118.06754765422028 L 886.2552871652003 118.19513793453694 L 886.3330672973381 118.32308621517072 L 886.4080132166177 118.45137970140019 L 886.48011742851 118.5800055639836 L 886.5493727226535 118.70895094044191 L 886.6157721735768 118.83820293634493 L 886.67930914139 118.96774862660077 L 886.7399772724493 119.09757505674834 L 886.7977704999922 119.22766924425285 L 886.852683044744 119.35801817980393 L 886.9047094154961 119.48860882861668 L 886.9538444096547 119.61942813173502 L 887.0000831137613 119.75046300733766 L 887.0434209039842 119.88170035204624 L 887.0838534465803 120.01312704223564 L 887.1213766983291 120.14472993534636 L 887.1559869069366 120.27649587119879 L 887.187680611411 120.40841167330912 L 887.216454642408 120.54046415020707 L 887.2423061225488 120.67264009675502 L 887.2652324667067 120.80492629546842 L 887.2852313822664 120.93730951783768 L 887.3023008693531 121.06977652565084 L 887.3164392210322 121.20231407231753 L 887.3276450234803 121.33490890419354 L 887.3359171561267 121.46754776190618 L 887.3412547917649 121.60021738168017 L 887.3436573966356 121.73290449666413 M 887.3438063074739 163.9953886992 L 887.3423386645155 164.12807860063583 L 887.3379358824034 164.2607552331921 L 887.3305984014122 164.39340532931612 L 887.3203269552838 164.5260156241088 L 887.3071225711543 164.65857285665118 L 887.2909865694511 164.79106377133044 L 887.271920563761 164.92347511916557 L 887.2499264606686 165.05579365913212 L 887.2250064595657 165.18800615948632 L 887.197163052432 165.32009939908835 L 887.1663990235847 165.45206016872433 L 887.1327174494014 165.5838752724272 L 887.0961216980111 165.71553152879653 L 887.0566154289586 165.84701577231633 L 887.0142025928379 165.97831485467182 L 886.9688874308972 166.1094156460642 L 886.920674474615 166.24030503652358 L 886.8695685452467 166.37096993722 L 886.8155747533426 166.50139728177226 L 886.758698498237 166.6315740275546 L 886.698945467508 166.7614871570009 L 886.6363216364089 166.8911236789065 L 886.5708332672705 167.0204706297272 L 886.5024869088752 167.1495150748758 L 886.4312893958019 167.27824411001524 L 886.3572478477425 167.40664486234928 L 886.2803696687904 167.53470449190974 L 886.200662546699 167.66241019284033 L 886.1181344521145 167.7897491946774 L 886.0327936377772 167.9167087636269 L 885.9446486376978 168.04327620383768 L 885.8537082663025 168.16943885867124 L 885.7599816175529 168.29518411196722 L 885.6634780640355 168.4204993893051 L 885.5642072560256 168.5453721592615 L 885.462179120521 168.66978993466356 L 885.3574038602504 168.7937402738374 L 885.2498919526524 168.91721078185236 L 885.1396541488282 169.04018911176058 L 885.0267014724662 169.16266296583154 L 884.9110452187401 169.28462009678188 L 884.792696953179 169.4060483090001 L 884.6716685105104 169.52693545976626 L 884.5479719934781 169.64726946046596 L 884.4216197716305 169.7670382777994 L 884.2926244800846 169.8862299349847 L 884.160999018262 170.0048325129554 L 884.0267565485993 170.1228341515526 L 883.8899104952314 170.24022305071077 L 883.75047454265 170.35698747163778 L 883.6084626343336 170.47311573798885 L 883.4638889713551 170.58859623703415 L 883.3167680109602 170.70341742081996 L 883.1671144651223 170.81756780732366 L 883.0149432990713 170.93103598160164 L 882.8602697297971 171.04381059693108 L 882.7031092245276 171.1558803759444 L 882.5434774991822 171.26723411175712 L 882.3813905168008 171.37786066908842 L 882.2168644859464 171.48774898537476 L 882.0499158590849 171.59688807187612 L 881.8805613309399 171.7052670147748 L 881.7088178368232 171.81287497626676 L 881.5347025509409 171.91970119564556 L 881.3582328846766 172.02573499037828 L 881.1794264848498 172.13096575717384 L 880.9983012319516 172.23538297304322 L 880.8148752383563 172.33897619635187 L 880.6291668465103 172.44173506786373 L 880.4411946270983 172.54364931177736 L 880.2509773771853 172.64470873675324 L 880.0585341183379 172.7449032369331 L 879.8638840947216 172.84422279295046 L 879.6670467711766 172.94265747293244 L 879.4680418312712 173.04019743349306 L 879.2668891753335 173.13683292071758 L 879.0636089184616 173.2325542711378 L 878.8582213885115 173.3273519126984 L 878.6507471240654 173.4212163657143 L 878.4412068723767 173.51413824381834 L 878.2296215872958 173.60610825490022 L 878.0160124271752 173.69711720203543 L 877.8004007527526 173.78715598440508 L 877.582808125016 173.87621559820602 L 877.3632563030467 173.96428713755103 L 877.1417672418439 174.05136179535958 L 876.9183630901293 174.1374308642385 L 876.6930661881319 174.22248573735257 L 876.465899065354 174.3065179092854 L 876.2368844383187 174.38951897688978 L 876.0060452082978 174.47148064012814 L 875.773404459022 174.55239470290243 L 875.5389854543722 174.63225307387387 L 875.3028116360538 174.71104776727185 L 875.0649066212516 174.7887709036927 L 874.8252942002688 174.86541471088756 L 874.5839983341479 174.94097152453958 L 874.3410431522744 175.01543378903034 L 874.0964529499641 175.08879405819548 L 873.8502521860335 175.1610449960692 L 873.6024654803535 175.23217937761788 L 873.3531176113885 175.3021900894627 L 873.1022335137174 175.3710701305908 L 872.849838275541 175.43881261305546 L 872.5959571361727 175.5054107626649 L 872.3406154835151 175.57085791965963 L 872.0838388515203 175.6351475393785 L 871.825652917638 175.69827319291312 L 871.566083500246 175.76022856775074 L 871.30515655607 175.82100746840553 L 871.0428981775867 175.88060381703804 L 870.7793345904157 175.93901165406308 L 870.514492150696 175.99622513874561 L 870.2483973424507 176.05223854978485 L 869.9810767749392 176.10704628588638 L 869.7125571799952 176.16064286632223 L 869.4428654093545 176.2130229314791 L 869.1720284319695 176.264181243394 L 868.9000733313121 176.3141126862785 L 868.627027302666 176.36281226702982 L 868.3529176504062 176.41027511573054 L 868.0777717852698 176.4564964861353 L 867.8016172216137 176.50147175614558 L 867.5244815746645 176.54519642827188 L 867.2463925577556 176.5876661300834 L 866.9673779795572 176.62887661464538 L 866.6874657412945 176.66882376094367 L 866.4066838339583 176.70750357429694 L 866.1250603355049 176.7449121867561 L 865.8426234080498 176.78104585749108 L 865.5594012950503 176.8159009731649 L 865.2754223184816 176.84947404829506 L 864.9907148760049 176.881761725602 L 864.705307438127 176.9127607763449 L 864.4192285453538 176.94246810064456 L 864.1325068053364 176.97088072779323 L 863.8451708900099 176.99799581655193 L 863.557249532726 177.02381065543437 L 863.268771525381 177.0483226629782 L 862.9797657155348 177.07152938800303 L 862.6902610035278 177.09342850985573 L 862.4002863395899 177.11401783864235 L 862.1098707209458 177.13329531544719 L 861.8190431889154 177.15125901253862 L 861.5278328260096 177.1679071335619 L 861.2362687530218 177.18323801371884 L 860.9443801261166 177.19725011993413 L 860.6521961339132 177.20994205100885 L 860.3597459945676 177.22131253776053 L 860.0670589528497 177.23136044314987 L 859.7741642772202 177.2400847623948 L 859.4810912569021 177.2474846230706 L 859.1878691989535 177.25355928519738 L 858.8945274253359 177.258308141314 L 858.601095269982 177.2617307165388 L 858.307602075863 177.26382666861713 L 858.0140771920536 177.2645957879555 L 857.7205499707976 177.26403799764265 L 857.4270497645725 177.2621533534571 L 857.1336059231545 177.25894204386174 L 856.840247790683 177.25440438998484 L 856.5470047027269 177.24854084558802 L 856.2539059833506 177.2413519970208 L 855.9609809421818 177.23283856316206 L 855.6682588714804 177.2230013953481 L 855.3757690432097 177.2118414772875 L 855.0835407061087 177.19935992496275 L 854.7916030827677 177.18555798651872 L 854.4999853667056 177.1704370421377 L 854.208716719451 177.15399860390158 L 853.9178262676261 177.13624431564045 L 853.6273431000334 177.11717595276838 L 853.3372962647478 177.0967954221057 L 853.047714766211 177.07510476168855 L 852.7586275623316 177.0521061405649 L 852.4700635615891 177.02780185857765 L 852.182051620143 177.00219434613476 L 851.8946205389476 176.97528616396616 L 851.6077990608713 176.94708000286764 L 851.3216158678231 176.91757868343177 L 851.0360995778836 176.88678515576595 L 850.751278742444 176.85470249919726 L 850.4671818433505 176.82133392196462 L 850.1838372900563 176.78668276089797 L 849.9012734167804 176.75075248108453 L 849.6195184796749 176.71354667552234 L 849.3386006539986 176.67506906476092 L 849.0585480313 176.63532349652934 L 848.7793886166079 176.59431394535125 L 848.5011503256313 176.55204451214763 L 848.2238609819674 176.50851942382653 L 847.9475483143193 176.46374303286058 L 847.6722399537238 176.4177198168515 L 847.3979634307872 176.37045437808257 L 847.1247461729336 176.32195144305825 L 846.8526155016608 176.2722158620317 L 846.5815986298093 176.22125260851948 L 846.3117226588404 176.1690667788045 L 846.0430145761263 176.1156635914263 L 845.7755012522514 176.06104838665905 L 845.5092094383251 176.00522662597774 L 845.244165763307 175.94820389151192 L 844.9803967313436 175.88998588548753 L 844.7179287191183 175.8305784296566 L 844.4567879732135 175.76998746471529 L 844.1970006074865 175.70821904970956 L 843.9385926004571 175.6452793614294 L 843.6815897927107 175.58117469379127 L 843.4260178843141 175.51591145720846 L 843.1719024322449 175.44949617795024 L 842.9192688478367 175.38193549748922 L 842.6681423942374 175.3132361718371 L 842.418548183883 175.24340507086924 L 842.1705111759867 175.17244917763753 L 841.9240561740424 175.10037558767218 L 841.6792078233451 175.0271915082721 L 841.4359906085257 174.9529042577842 L 841.194428851103 174.87752126487175 L 840.9545467070516 174.80105006777111 L 840.7163681643858 174.7234983135383 L 840.4799170407615 174.64487375728413 L 840.245216981094 174.56518426139868 L 840.0122914551937 174.48443779476514 L 839.7811637554191 174.4026424319629 L 839.5518569943475 174.31980635246006 L 839.324394102464 174.23593783979555 L 839.0987978258681 174.15104528075074 L 838.8750907239996 174.06513716451082 L 838.6532951673823 173.97822208181574 L 838.4334333353869 173.89030872410146 L 838.2155272140135 173.8014058826304 L 837.9995985936924 173.71152244761265 L 837.785669067106 173.6206674073168 L 837.5737600270287 173.5288498471712 L 837.3638926641876 173.4360789488553 L 837.1560879651444 173.34236398938168 L 836.9503667101956 173.24771434016816 L 836.7467494712954 173.15213946610078 L 836.545256609998 173.0556489245873 L 836.3459082754216 172.9582523646015 L 836.1487244022335 172.85995952571815 L 835.9537247086569 172.76078023713927 L 835.7609286944983 172.6607244167111 L 835.5703556391987 172.55980206993223 L 835.3820245999048 172.4580232889533 L 835.1959544095636 172.35539825156758 L 835.0121636750389 172.25193722019324 L 834.8306707752512 172.14765054084725 L 834.6514938593391 172.04254864211063 L 834.474650844845 171.93664203408565 L 834.300159415923 171.82994130734488 L 834.1280370215703 171.72245713187206 L 833.9583008738832 171.61420025599517 L 833.7909679463351 171.5051815053116 L 833.6260549720789 171.39541178160556 L 833.4635784422749 171.28490206175795 L 833.3035546044406 171.17366339664864 L 833.1459994608265 171.06170691005147 L 832.9909287668156 170.9490437975218 L 832.838358029348 170.83568532527698 L 832.6883025053705 170.7216428290698 L 832.5407772003103 170.6069277130548 L 832.3957968665751 170.49155144864804 L 832.2533760020773 170.37552557337978 L 832.1135288487848 170.25886168974085 L 831.9762693912962 170.1415714640224 L 831.8416113554431 170.0236666251493 L 831.7095682069167 169.90515896350712 L 831.580153149922 169.78606032976333 L 831.4533791258566 169.66638263368202 L 831.3292588120174 169.54613784293306 L 831.2078046203325 169.42533798189535 L 831.0890286961196 169.30399513045433 L 830.9729429168723 169.18212142279398 L 830.8595588910716 169.05972904618355 L 830.7488879570259 168.93683023975868 L 830.6409411817361 168.8134372932976 L 830.5357293597899 168.68956254599215 L 830.4332630122818 168.56521838521383 L 830.3335523857613 168.44041724527506 L 830.2366074512076 168.31517160618588 L 830.1424379030337 168.1894939924058 L 830.0510531581159 168.0633969715915 L 829.9624623548524 167.93689315333992 L 829.8766743522498 167.8099951879275 L 829.7936977290368 167.6827157650451 L 829.7135407828066 167.5550676125288 L 829.6362115291871 167.4270634950876 L 829.5617177010391 167.29871621302652 L 829.4900667476835 167.17003860096682 L 829.4212658341557 167.04104352656248 L 829.35532184049 166.91174388921343 L 829.2922413610306 166.78215261877568 L 829.2320307037729 166.65228267426826 L 829.1746958897326 166.52214704257742 L 829.120242652343 166.39175873715783 L 829.0686764368828 166.26113079673144 L 829.0200023999305 166.13027628398342 L 828.9742254088492 165.99920828425596 L 828.9313500412998 165.86793990423985 L 828.8913805847833 165.7364842706637 L 828.8543210362121 165.6048545289813 L 828.8201751015104 165.47306384205714 L 828.7889461952428 165.3411253888501 L 828.7606374402742 165.2090523630955 L 828.7352516674564 165.07685797198593 L 828.7127914153455 164.94455543485032 L 828.693258929948 164.8121579818321 L 828.6766561644963 164.6796788525662 L 828.662984779253 164.54713129485526 L 828.6522461413451 164.41452856334453 L 828.6444413246278 164.28188391819666 L 828.6395711095759 164.14921062376564 L 828.637635983207 164.01652194727035" stroke-miterlimit="10" stroke-width="3.417827152" stroke-dasharray=""/></g><g><g/><text fill="black" stroke="none" font-family="sans-serif" font-size="13pt" font-style="normal" font-weight="normal" text-decoration="normal" x="806.7240361191203" y="198.83712078399998" text-anchor="start" dominant-baseline="alphabetic" xml:space="preserve">ISIS Archive</text></g><path fill="none" stroke="none"/><g><path fill="white" stroke="black" paint-order="fill stroke markers" d=" M 929.3622345438273 150.585443344 L 1122.023133349929 150.585443344 L 1122.023133349929 204.868580464 L 929.3622345438273 204.868580464 L 929.3622345438273 150.585443344 Z" stroke-miterlimit="10" stroke-width="3.216778496" stroke-dasharray=""/></g><g><g/><text fill="black" stroke="none" font-family="sans-serif" font-size="13pt" font-style="normal" font-weight="normal" text-decoration="normal" x="951.1760137198273" y="184.76371486399998" text-anchor="start" dominant-baseline="alphabetic" xml:space="preserve">Live visualisation</text></g></g><g><path fill="white" stroke="black" paint-order="fill stroke markers" d=" M 122.19874055804037 271.214636944 L 142.30360615804037 271.214636944 L 142.30360615804037 327.508260624 L 122.19874055804037 327.508260624 L 122.19874055804037 271.214636944" stroke-miterlimit="10" stroke-width="1.6754054666666667" stroke-dasharray=""/><path fill="white" stroke="black" paint-order="fill stroke markers" d=" M 481.5933313860097 383.801884304 L 501.69819698600975 383.801884304 L 501.69819698600975 440.095507984 L 481.5933313860097 440.095507984 L 481.5933313860097 383.801884304" stroke-miterlimit="10" stroke-width="1.6754054666666667" stroke-dasharray=""/><path fill="white" stroke="black" paint-order="fill stroke markers" d=" M 670.8424179356659 496.389131664 L 690.947283535666 496.389131664 L 690.947283535666 552.682755344 L 670.8424179356659 552.682755344 L 670.8424179356659 496.389131664" stroke-miterlimit="10" stroke-width="1.6754054666666667" stroke-dasharray=""/><g><text fill="black" stroke="none" font-family="sans-serif" font-size="13pt" font-style="normal" font-weight="normal" text-decoration="normal" x="36.85892026666667" y="263.172690704" text-anchor="start" dominant-baseline="alphabetic" xml:space="preserve">trigger</text></g><g><path fill="none" stroke="black" paint-order="fill stroke markers" d=" M 10.0524328 271.214636944 L 105.6457345473737 271.214636944" stroke-miterlimit="10" stroke-width="1.6754054666666667" stroke-dasharray=""/><g transform="translate(122.19874055804037,271.214636944) translate(-122.19874055804037,-271.214636944)"><path fill="black" stroke="none" paint-order="stroke fill markers" d=" M 105.4446858913737 262.8376096106667 L 122.19874055804037 271.214636944 L 105.4446858913737 279.59166427733334 Z"/></g></g><g><text fill="black" stroke="none" font-family="sans-serif" font-size="13pt" font-style="normal" font-weight="normal" text-decoration="normal" x="196.41842606794432" y="319.466314384" text-anchor="start" dominant-baseline="alphabetic" xml:space="preserve">dev1</text></g><g><path fill="none" stroke="red" paint-order="fill stroke markers" d=" M 142.30360615804037 327.508260624 L 276.94690714247463 327.508260624" stroke-miterlimit="10" stroke-width="1.6754054666666667" stroke-dasharray=""/><g transform="translate(293.4999131531413,327.508260624) translate(-293.4999131531413,-327.508260624)"><path fill="red" stroke="none" paint-order="stroke fill markers" d=" M 276.7458584864746 319.13123329066667 L 293.4999131531413 327.508260624 L 276.7458584864746 335.88528795733333 Z"/></g></g><g><text fill="black" stroke="none" font-family="sans-serif" font-size="13pt" font-style="normal" font-weight="normal" text-decoration="normal" x="366.063288681929" y="375.759938064" text-anchor="start" dominant-baseline="alphabetic" xml:space="preserve">dev1</text></g><g><path fill="none" stroke="red" paint-order="fill stroke markers" d=" M 293.4999131531413 383.801884304 L 465.04032537534306 383.801884304" stroke-miterlimit="10" stroke-width="1.6754054666666667" stroke-dasharray=""/><g transform="translate(481.5933313860097,383.801884304) translate(-481.5933313860097,-383.801884304)"><path fill="red" stroke="none" paint-order="stroke fill markers" d=" M 464.83927671934305 375.42485697066667 L 481.5933313860097 383.801884304 L 464.83927671934305 392.17891163733333 Z"/></g></g><g><text fill="black" stroke="none" font-family="sans-serif" font-size="13pt" font-style="normal" font-weight="normal" text-decoration="normal" x="366.0466222695755" y="432.053561744" text-anchor="start" dominant-baseline="alphabetic" xml:space="preserve">ev42</text></g><g><path fill="none" stroke="orange" paint-order="fill stroke markers" d=" M 481.5933313860097 440.095507984 L 310.0529191638079 440.095507984" stroke-miterlimit="10" stroke-width="1.6754054666666667" stroke-dasharray=""/><g transform="translate(293.4999131531413,440.095507984) translate(-293.4999131531413,-440.095507984)"><path fill="orange" stroke="none" paint-order="stroke fill markers" d=" M 310.25396781980794 431.71848065066666 L 293.4999131531413 440.095507984 L 310.25396781980794 448.4725353173333 Z"/></g></g><g><text fill="black" stroke="none" font-family="sans-serif" font-size="13pt" font-style="normal" font-weight="normal" text-decoration="normal" x="460.6711655444036" y="488.347185424" text-anchor="start" dominant-baseline="alphabetic" xml:space="preserve">ev42</text></g><g><path fill="none" stroke="orange" paint-order="fill stroke markers" d=" M 293.4999131531413 496.389131664 L 654.2894119249993 496.389131664" stroke-miterlimit="10" stroke-width="1.6754054666666667" stroke-dasharray=""/><g transform="translate(670.8424179356659,496.389131664) translate(-670.8424179356659,-496.389131664)"><path fill="orange" stroke="none" paint-order="stroke fill markers" d=" M 654.0883632689993 488.01210433066666 L 670.8424179356659 496.389131664 L 654.0883632689993 504.7661589973333 Z"/></g></g><g><text fill="black" stroke="none" font-family="sans-serif" font-size="13pt" font-style="normal" font-weight="normal" text-decoration="normal" x="756.5856598273931" y="544.640809104" text-anchor="start" dominant-baseline="alphabetic" xml:space="preserve">.nxs</text></g><g><path fill="none" stroke="blue" paint-order="fill stroke markers" d=" M 690.947283535666 552.682755344 L 841.4376965208072 552.682755344" stroke-miterlimit="10" stroke-width="1.6754054666666667" stroke-dasharray=""/><g transform="translate(857.9907025314739,552.682755344) translate(-857.9907025314739,-552.682755344)"><path fill="blue" stroke="none" paint-order="stroke fill markers" d=" M 841.2366478648072 544.3057280106667 L 857.9907025314739 552.682755344 L 841.2366478648072 561.0597826773334 Z"/></g></g><g><text fill="black" stroke="none" font-family="sans-serif" font-size="13pt" font-style="normal" font-weight="normal" text-decoration="normal" x="638.0962985500097" y="600.934432784" text-anchor="start" dominant-baseline="alphabetic" xml:space="preserve">ev42</text></g><g><path fill="none" stroke="orange" paint-order="fill stroke markers" d=" M 293.4999131531413 608.976379024 L 1009.1396779362115 608.976379024" stroke-miterlimit="10" stroke-width="1.6754054666666667" stroke-dasharray=""/><g transform="translate(1025.692683946878,608.976379024) translate(-1025.692683946878,-608.976379024)"><path fill="orange" stroke="none" paint-order="stroke fill markers" d=" M 1008.9386292802114 600.5993516906667 L 1025.692683946878 608.976379024 L 1008.9386292802114 617.3534063573334 Z"/></g></g></g><g/><g/><g/><g/><g/><g/></g></svg>